<svg width="110" height="35" viewBox="0 0 110 35" fill="none" xmlns="http://www.w3.org/2000/svg">
<path d="M54.3256 15.3147C54.8493 15.2753 55.3497 15.1278 55.8255 15.4474C55.8476 15.7733 55.8673 16.0769 55.8931 16.4556C56.0407 16.3425 56.1575 16.2786 56.2411 16.1851C57.5763 14.6827 60.4557 14.7356 61.4712 17.1871C62.0921 18.6859 62.0294 20.2338 61.229 21.6882C60.4495 23.1046 58.523 23.9222 56.8988 23.0578C56.621 22.9103 56.3849 22.6829 56.0444 22.4296C56.0444 23.7537 56.0444 25.0299 56.0444 26.3565C55.4333 26.3565 54.9132 26.3565 54.3256 26.3565C54.3256 22.7087 54.3256 19.0535 54.3256 15.3147ZM56.1132 19.2809C56.1267 19.2834 56.1403 19.2858 56.1538 19.2895C56.1747 19.6768 56.1808 20.0666 56.2189 20.4526C56.2939 21.2087 56.8398 21.7325 57.6316 21.9169C58.3754 22.0903 59.3541 21.7067 59.6258 21.0907C60.1139 19.9866 60.1213 18.8703 59.7266 17.7588C59.4635 17.0175 58.866 16.6191 58.084 16.6118C57.2873 16.6044 56.6333 16.9732 56.348 17.7256C56.1673 18.2039 56.1857 18.7596 56.1132 19.2809Z" fill="white"/>
<path d="M47.0692 22.5434C47.0692 23.7987 47.0692 25.0539 47.0692 26.3572C46.4582 26.3572 45.9369 26.3572 45.3529 26.3572C45.3529 22.6934 45.3529 19.0222 45.3529 15.2674C45.7316 15.2674 46.0943 15.2551 46.4557 15.2723C46.7102 15.2846 46.8688 15.4223 46.8738 15.7026C46.8774 15.9264 46.8983 16.1489 46.9168 16.4735C47.0877 16.3247 47.2082 16.2387 47.3078 16.1329C48.6454 14.7031 51.5371 14.7412 52.4617 17.2038C52.9928 18.6214 52.9781 20.109 52.2969 21.5057C51.5359 23.0659 49.6868 23.8073 48.2237 23.2073C47.8401 23.0499 47.4983 22.7942 47.0692 22.5434ZM47.0692 19.3652C47.0692 19.6504 47.0471 19.9394 47.0729 20.2221C47.1553 21.1197 47.695 21.7172 48.4979 21.9028C49.4175 22.1155 50.2794 21.6778 50.5634 21.0889C51.1031 19.9701 51.1732 18.8353 50.6507 17.671C50.0716 16.3813 48.3995 16.2829 47.5832 17.2874C47.0852 17.9021 47.0385 18.6238 47.0692 19.3652Z" fill="white"/>
<path d="M43.8148 23.1007C43.1521 23.1007 42.6296 23.1007 41.9853 23.1007C41.6509 22.1024 41.2981 21.0512 40.9206 19.925C39.8842 19.925 38.8244 19.9213 37.7646 19.9275C37.4634 19.93 37.3711 20.1439 37.2986 20.4045C37.0835 21.1877 36.8462 21.9635 36.6113 22.7405C36.5769 22.8549 36.5056 22.9581 36.4343 23.1032C35.8946 23.1032 35.3548 23.1032 34.7044 23.1032C35.286 21.2627 35.838 19.4898 36.406 17.7231C36.9789 15.9416 37.5666 14.165 38.1678 12.3232C38.8576 12.3232 39.5621 12.3232 40.3993 12.3232C41.5144 15.8432 42.6505 19.4308 43.8148 23.1007ZM37.665 18.5763C38.6227 18.5763 39.519 18.5763 40.5309 18.5763C40.0502 17.0309 39.5977 15.5789 39.1465 14.1281C39.0998 14.1306 39.0543 14.133 39.0076 14.1342C38.5662 15.5924 38.126 17.0518 37.665 18.5763Z" fill="white"/>
<path d="M71.4113 12.6439C71.281 13.0804 71.1593 13.4848 71.013 13.9693C70.7241 13.8906 70.4585 13.823 70.1942 13.7467C69.4983 13.5451 68.8086 13.4074 68.0893 13.6693C67.5016 13.8832 67.0799 14.2533 67.0357 14.8803C66.9951 15.4581 67.2385 15.9426 67.7992 16.2229C68.5971 16.6224 69.4098 16.9987 70.1696 17.4597C70.6466 17.7486 71.0978 18.1261 71.4568 18.5503C72.1294 19.3482 72.0236 21.2059 71.1765 22.0764C70.6811 22.5854 70.1118 22.9431 69.4208 23.1325C68.0832 23.4976 66.1849 23.2972 65.13 22.6038C65.2357 22.1772 65.3501 21.7198 65.4632 21.2649C66.0927 21.4567 66.6287 21.6497 67.1783 21.7788C67.7832 21.9202 68.3955 21.9116 68.9918 21.6903C69.5856 21.4702 70.0098 21.0952 70.1179 20.4461C70.236 19.7355 69.9151 19.1994 69.3409 18.8429C68.8786 18.5564 68.366 18.3449 67.8631 18.1273C67.1832 17.8322 66.5439 17.4806 66.0349 16.9335C64.7698 15.5774 65.2517 13.2992 66.9644 12.5111C68.2725 11.9136 70.0036 11.9505 71.4113 12.6439Z" fill="white"/>
<path d="M86.3433 19.1406C86.3114 20.6885 85.8454 22.0347 84.4364 22.8621C81.9726 24.3068 78.9788 22.7884 78.6961 20.1143C78.5657 18.8787 78.696 17.7377 79.414 16.6742C79.9698 15.8517 80.764 15.419 81.6664 15.269C83.2549 15.0046 84.6614 15.3944 85.6647 16.7726C86.1798 17.4795 86.3569 18.2799 86.3433 19.1406ZM80.4222 19.4836C80.5267 19.8487 80.6054 20.4524 80.8648 20.9639C81.4832 22.1835 83.0238 22.5228 83.9385 21.2651C84.7192 20.1905 84.7352 18.3131 83.9705 17.2152C83.2598 16.196 81.8349 16.3288 81.2103 17.0591C80.6644 17.6984 80.5058 18.4582 80.4222 19.4836Z" fill="white"/>
<path d="M99.7617 19.7186C97.9716 19.7186 96.2823 19.7186 94.6004 19.7186C94.5094 20.878 95.2409 21.5665 96.0118 21.869C96.9401 22.2329 97.8228 21.9772 98.7228 21.8161C98.8211 21.7989 98.9183 21.7768 99.0916 21.7411C99.1998 22.1173 99.3019 22.4751 99.4383 22.9509C98.8248 23.096 98.2839 23.2497 97.7331 23.348C96.72 23.53 95.7131 23.4243 94.7959 22.973C93.6562 22.4124 93.0931 21.4079 92.857 20.1748C92.5447 18.5445 93.2689 16.6056 94.6053 15.7622C96.5368 14.5438 99.458 15.1586 99.7543 18.2076C99.7998 18.6699 99.7617 19.1408 99.7617 19.7186ZM98.0835 18.3515C98.1732 17.5671 97.9249 16.972 97.2868 16.6007C96.7434 16.2835 96.1397 16.2651 95.5987 16.613C94.9889 17.004 94.6201 17.5548 94.6926 18.3515C95.8421 18.3515 96.9548 18.3515 98.0835 18.3515Z" fill="white"/>
<path d="M77.7038 15.3653C77.7038 15.8447 77.7038 16.1878 77.7038 16.5984C77.3817 16.6144 77.0817 16.6304 76.7817 16.6451C76.4805 16.6599 76.1793 16.6722 75.8498 16.6869C75.8276 16.9009 75.7969 17.0582 75.7969 17.2144C75.7932 18.2594 75.7895 19.3032 75.7994 20.3483C75.8018 20.5905 75.824 20.8425 75.8953 21.0724C76.0809 21.6786 76.3305 21.8495 76.9686 21.8642C77.1309 21.8679 77.2932 21.8642 77.4309 21.8642C77.4813 21.9208 77.5231 21.9454 77.5305 21.9786C77.7887 23.1293 77.6989 23.2474 76.5309 23.3101C75.4551 23.3679 74.6449 22.9793 74.3228 22.1187C74.1421 21.6343 74.0953 21.0835 74.0769 20.5585C74.04 19.495 74.0646 18.4291 74.0634 17.3644C74.0634 17.1431 74.0634 16.9218 74.0634 16.6537C73.6503 16.6107 73.2962 16.575 72.915 16.5357C72.915 16.1115 72.915 15.7341 72.915 15.2976C73.2839 15.2632 73.622 15.2312 74.0179 15.1944C74.0449 14.7727 74.072 14.3534 74.1015 13.8801C74.6252 13.7202 75.1441 13.5629 75.7588 13.376C75.7588 14.0436 75.7588 14.603 75.7588 15.2263C76.4387 15.2755 77.0534 15.3185 77.7038 15.3653Z" fill="white"/>
<path d="M28.6636 13.2844C27.026 14.4959 26.0777 16.0616 26.2447 18.1972C26.4107 20.3158 27.5979 21.6828 29.4152 22.6279C29.1583 23.6037 28.7587 24.4981 28.2312 25.3185C27.6931 26.1558 27.1264 26.9889 26.4688 27.7321C25.3017 29.0493 24.0595 29.2724 22.3246 28.5144C21.3922 28.1074 20.4428 27.9055 19.4554 28.0831C18.8094 28.1994 18.1793 28.4372 17.563 28.6751C16.0311 29.2661 14.9781 28.9362 14.0245 27.9203C12.7929 26.6072 11.834 25.1187 11.1342 23.4546C10.3043 21.4798 9.84648 19.4383 10.0103 17.2965C10.1742 15.1493 10.9449 13.2749 12.7527 11.9724C14.3766 10.8021 16.1305 10.6234 17.9869 11.3899C18.5018 11.6024 19.0314 11.8403 19.5738 11.9079C19.9977 11.9608 20.4629 11.8043 20.8921 11.6785C21.3604 11.5411 21.8002 11.3106 22.2654 11.1584C24.31 10.4902 26.1718 10.8581 27.8506 12.1838C28.3105 12.5486 28.5335 12.8647 28.6636 13.2844Z" fill="white"/>
<path d="M19.7926 10.5566C19.2513 8.20008 21.8869 5.05174 24.3893 5.12681C25.1642 7.25812 22.11 10.8653 19.7926 10.5566Z" fill="white"/>
<path d="M87.8457 15.4434C88.2883 15.4434 88.7321 15.4434 89.2448 15.4434C89.2743 15.8368 89.3026 16.2106 89.3395 16.7098C89.9788 15.6807 90.7005 14.9959 91.9644 15.2799C91.9644 15.7729 91.9644 16.2524 91.9644 16.7749C91.8009 16.7835 91.6447 16.7946 91.4874 16.7995C90.5063 16.8339 89.7305 17.4524 89.6579 18.4322C89.562 19.7355 89.5903 21.0486 89.5596 22.3579C89.5534 22.6174 89.5227 22.8768 89.5006 23.1743C88.9449 23.1743 88.4445 23.1743 87.8445 23.1743C87.8457 20.6109 87.8457 18.0683 87.8457 15.4434Z" fill="white"/>
<rect x="1.37331" y="1.07253" width="107.511" height="33.255" rx="16.6275" stroke="#D9D9D9" stroke-width="0.788605"/>
</svg>
