<svg width="120" height="35" viewBox="0 0 120 35" fill="none" xmlns="http://www.w3.org/2000/svg">
<path d="M41.8705 17.8688C41.8705 17.3173 41.8705 16.8039 41.8705 16.2599C41.9676 16.2517 42.0641 16.2361 42.1612 16.2354C43.7899 16.234 45.4185 16.2354 47.0465 16.2327C47.2237 16.2327 47.3806 16.2191 47.4051 16.4684C47.5463 17.9143 47.3609 19.2984 46.4916 20.4999C45.2664 22.1931 43.5291 22.8688 41.4936 22.7248C39.1715 22.5605 37.4295 21.4066 36.3829 19.3283C34.8147 16.2144 36.3992 12.3764 39.7468 11.181C41.9113 10.4082 43.9277 10.7253 45.7173 12.2215C45.7941 12.2854 45.8837 12.3343 45.974 12.394C45.5428 12.809 45.1713 13.1663 44.7814 13.5412C44.5906 13.4019 44.38 13.2349 44.1573 13.0882C41.6253 11.4222 38.0631 13.0236 37.6339 16.0201C37.2848 18.459 38.6771 20.5488 41.0297 21.0113C42.4872 21.2979 43.8191 20.976 44.8921 19.8825C45.4273 19.3372 45.6569 18.6553 45.7425 17.8674C44.4344 17.8688 43.1623 17.8688 41.8705 17.8688Z" fill="white"/>
<path d="M70.6957 15.9231C70.6957 15.6752 70.6957 15.5075 70.6957 15.3146C71.2261 15.3146 71.7402 15.3146 72.2829 15.3146C72.2897 15.4117 72.3026 15.5095 72.3026 15.608C72.3033 17.8078 72.3107 20.0083 72.2992 22.2081C72.2944 23.1094 72.1477 23.9882 71.6241 24.753C70.8274 25.915 69.2973 26.4536 67.8031 26.1072C66.69 25.8492 65.8845 25.1897 65.3452 24.1954C65.3031 24.1186 65.2766 24.0331 65.227 23.9142C65.6807 23.7274 66.1133 23.5386 66.5568 23.3804C66.6146 23.3593 66.7599 23.4741 66.8108 23.5583C67.3515 24.4575 68.1997 24.8338 69.2022 24.6056C70.0939 24.4025 70.6142 23.7268 70.6828 22.6673C70.6984 22.4214 70.6848 22.1735 70.6848 21.9134C70.6427 21.9222 70.6026 21.9181 70.5857 21.9365C69.6572 22.8995 68.1807 22.9668 66.9738 22.3338C65.5143 21.5684 64.6728 19.8874 64.9452 18.307C65.2406 16.5948 66.5079 15.3221 68.195 15.0755C69.0555 14.9499 69.8297 15.1713 70.4892 15.7534C70.5368 15.7948 70.587 15.8342 70.6957 15.9231ZM66.5494 18.9346C66.6478 19.2884 66.6981 19.6653 66.8543 19.9907C67.2177 20.7486 67.8337 21.186 68.6955 21.2105C69.5384 21.2335 70.153 20.8308 70.5245 20.0993C70.9259 19.3081 70.9144 18.4822 70.5177 17.6924C70.1829 17.0261 69.6362 16.6139 68.8612 16.5813C67.579 16.5269 66.6112 17.5362 66.5494 18.9346Z" fill="white"/>
<path d="M88.1495 22.5187C87.6136 22.5187 87.1185 22.5241 86.6241 22.5112C86.567 22.5099 86.491 22.4168 86.4631 22.3503C86.4353 22.283 86.4557 22.1947 86.4557 22.1159C86.4557 18.6087 86.4597 15.1015 86.4482 11.595C86.4468 11.2703 86.5338 11.1746 86.8611 11.182C88.2161 11.2119 89.5758 11.1535 90.9259 11.2438C92.7468 11.3654 94.1486 12.7862 94.2355 14.4678C94.3306 16.3002 93.1556 17.808 91.2777 18.134C90.5293 18.2637 89.7476 18.2073 88.9808 18.2182C88.1495 18.2298 88.1488 18.2209 88.1488 19.0454C88.1495 20.1837 88.1495 21.322 88.1495 22.5187ZM88.1699 12.8086C88.1699 14.1004 88.1699 15.3576 88.1699 16.6052C89.1132 16.6052 90.0417 16.6731 90.9551 16.5862C91.8666 16.4992 92.543 15.617 92.5451 14.7137C92.5478 13.7989 91.851 12.9085 90.9287 12.8263C90.024 12.7455 89.1058 12.8086 88.1699 12.8086Z" fill="white"/>
<path d="M102.779 18.055C102.822 17.4784 102.504 17.0002 101.909 16.736C101.078 16.3673 100.231 16.5547 99.5766 17.2379C99.5229 17.2943 99.3905 17.3344 99.3239 17.3086C98.8933 17.1429 98.4716 16.9561 98.0152 16.7632C98.1564 16.3605 98.3989 16.0569 98.7038 15.8063C100.017 14.725 102.227 14.7631 103.505 15.8823C104.059 16.3679 104.396 16.9928 104.416 17.7127C104.458 19.2687 104.433 20.826 104.434 22.3833C104.434 22.403 104.418 22.4234 104.401 22.4655C103.895 22.4655 103.379 22.4655 102.824 22.4655C102.824 22.2149 102.824 21.9622 102.824 21.7096C102.782 21.6804 102.741 21.6519 102.699 21.6226C102.646 21.7157 102.604 21.8182 102.538 21.9004C101.484 23.2167 98.9123 22.8825 98.0899 21.3958C97.4759 20.2867 97.7944 18.9671 98.8926 18.2913C100.032 17.5904 101.246 17.4974 102.5 17.9714C102.574 17.9993 102.645 18.0326 102.718 18.0625C102.729 18.0665 102.742 18.0604 102.779 18.055ZM100.799 21.245C101.725 21.2077 102.521 20.6066 102.751 19.7223C102.778 19.6191 102.75 19.4351 102.679 19.3828C102.034 18.9155 100.531 18.9576 99.9053 19.4405C99.2574 19.9404 99.3606 20.7737 100.118 21.0752C100.332 21.1615 100.571 21.19 100.799 21.245Z" fill="white"/>
<path d="M64.1933 18.9112C64.1879 21.0832 62.4941 22.7519 60.3031 22.7437C58.1508 22.7356 56.4563 21.0363 56.4583 18.8881C56.4597 16.7236 58.1617 15.0393 60.3438 15.042C62.5328 15.0454 64.1995 16.7195 64.1933 18.9112ZM62.4975 18.5329C62.4934 18.1139 62.2278 17.4401 61.5697 16.9729C60.862 16.4703 60.0864 16.4153 59.3298 16.8255C58.4693 17.2914 58.1121 18.086 58.1657 19.0321C58.2187 19.9646 58.6493 20.7042 59.554 21.0642C61.0176 21.6448 62.4934 20.5507 62.4975 18.5329Z" fill="white"/>
<path d="M48.0258 18.8766C48.0285 16.7073 49.723 15.0366 51.9153 15.042C54.0955 15.0468 55.7683 16.7338 55.7615 18.9214C55.7547 21.0655 54.0534 22.7444 51.8875 22.7438C49.7067 22.7424 48.023 21.056 48.0258 18.8766ZM49.7244 18.6484C49.7182 20.1045 50.555 21.1144 51.6647 21.2034C52.6747 21.2842 53.5066 20.7715 53.8904 19.8335C54.2863 18.8657 54.0113 17.6636 53.2431 17.0551C52.5497 16.5056 51.7768 16.4071 50.9849 16.778C50.1183 17.1827 49.7651 17.9359 49.7244 18.6484Z" fill="white"/>
<path d="M83.0782 17.9371C81.3613 18.6475 79.6742 19.345 77.9885 20.0419C78.1848 20.74 78.9143 21.2012 79.7822 21.2168C80.6169 21.2324 81.2166 20.8188 81.7022 20.1682C82.1498 20.463 82.5627 20.7346 83.0062 21.0267C82.6334 21.5938 82.1634 22.0162 81.5834 22.313C78.9774 23.6469 75.9803 21.8281 75.983 18.9097C75.9843 17.3204 76.6295 16.081 78.0965 15.378C79.9941 14.4686 82.0642 15.378 82.8928 17.4441C82.9526 17.5901 83.0042 17.7381 83.0782 17.9371ZM77.6653 18.7725C78.826 18.2903 79.9527 17.823 81.0747 17.3571C80.8764 16.7187 79.8746 16.4212 79.2769 16.5781C78.3044 16.8335 77.6612 17.6546 77.6653 18.7725Z" fill="white"/>
<path d="M105.866 25.9335C106.174 25.2476 106.453 24.6227 106.734 23.9993C106.956 23.5055 107.161 23.0036 107.41 22.5241C107.562 22.2314 107.532 21.9903 107.403 21.7016C106.498 19.6737 105.608 17.6389 104.713 15.6061C104.674 15.5165 104.642 15.4228 104.583 15.2645C105.178 15.2645 105.726 15.2523 106.272 15.2774C106.356 15.2815 106.461 15.4479 106.507 15.5599C107.086 16.955 107.657 18.3534 108.23 19.7511C108.28 19.8733 108.336 19.9929 108.431 20.2082C108.627 19.726 108.794 19.3286 108.952 18.9286C109.4 17.7971 109.85 16.6656 110.287 15.5301C110.363 15.3317 110.461 15.2509 110.68 15.2577C111.187 15.274 111.694 15.2625 112.253 15.2625C112.21 15.3929 112.189 15.4859 112.151 15.5722C110.714 18.8695 109.27 22.1635 107.847 25.4663C107.689 25.8317 107.502 25.9838 107.1 25.943C106.721 25.903 106.335 25.9335 105.866 25.9335Z" fill="white"/>
<path d="M73.4816 22.4964C73.4816 18.7263 73.4816 14.9855 73.4816 11.2168C74.0365 11.2168 74.5812 11.2168 75.1456 11.2168C75.1456 14.9767 75.1456 18.7243 75.1456 22.4964C74.5907 22.4964 74.0542 22.4964 73.4816 22.4964Z" fill="white"/>
<path d="M96.8246 22.4824C96.2751 22.4824 95.7501 22.4824 95.2014 22.4824C95.2014 18.7273 95.2014 14.9892 95.2014 11.2212C95.7345 11.2212 96.267 11.2212 96.8246 11.2212C96.8246 14.9648 96.8246 18.7029 96.8246 22.4824Z" fill="white"/>
<path d="M9.87633 28.037C9.85527 28.0363 9.83422 28.0356 9.81384 28.0343C9.81384 20.9682 9.81384 13.9022 9.81384 6.83611C9.83354 6.83339 9.85391 6.83203 9.87429 6.83203C9.87701 6.94477 9.88108 7.05684 9.88108 7.16958C9.8838 10.7834 9.88651 14.3973 9.88923 18.0111C9.88651 18.1789 9.88176 18.348 9.88176 18.5164C9.87972 21.6902 9.87836 24.8632 9.87633 28.037Z" fill="#C2E8F7"/>
<path d="M10.22 5.95355C10.2438 5.92502 10.2683 5.8965 10.292 5.86865C11.0826 6.64358 11.8724 7.41851 12.663 8.19412C12.7934 8.33267 12.9204 8.47393 13.0542 8.60841C13.9222 9.48453 14.7922 10.3593 15.6615 11.2347C15.6357 11.3298 15.5705 11.4344 15.5909 11.5186C15.7661 12.2474 15.9522 12.9734 16.1444 13.6981C16.4752 14.943 16.81 16.1866 17.1475 17.4294C17.483 18.6628 17.824 19.8941 18.1629 21.1268C18.0637 21.2334 17.968 21.3435 17.8654 21.4467C16.9451 22.3744 16.0228 23.3008 15.1019 24.2279C15.0584 24.2544 15.0156 24.2815 14.9722 24.308C14.9538 24.1301 14.9579 23.9467 14.9131 23.7762C14.5314 22.3344 14.1368 20.8959 13.7531 19.454C13.2165 17.4383 12.6881 15.4211 12.1536 13.4047C11.7339 11.8222 11.304 10.2425 10.8897 8.65935C10.6554 7.75945 10.4428 6.8548 10.22 5.95355Z" fill="#3AC5F2"/>
<path d="M10.22 5.95361C10.4427 6.85555 10.6546 7.75952 10.8896 8.65805C11.3039 10.2419 11.7338 11.8216 12.1536 13.4034C12.6881 15.4192 13.2164 17.437 13.753 19.4527C14.1367 20.8939 14.5313 22.3331 14.913 23.7749C14.9585 23.9454 14.9538 24.1295 14.9721 24.3067C14.8818 24.4059 14.7962 24.5098 14.7011 24.6035C14.045 25.2487 13.3869 25.8919 12.7295 26.5358C12.7071 26.5602 12.6847 26.5847 12.6629 26.6091C12.5515 26.7035 12.4395 26.7972 12.3281 26.8916C12.3138 26.7925 12.3084 26.6899 12.2833 26.5935C11.9675 25.3941 11.6476 24.1953 11.3318 22.9959C11.0927 22.0865 10.8618 21.1751 10.6207 20.267C10.4488 19.6191 10.2716 18.9726 10.0841 18.3294C10.0502 18.2139 9.95577 18.1154 9.88921 18.0095C9.88649 14.3963 9.88378 10.7825 9.88106 7.16864C9.88106 7.0559 9.87631 6.94384 9.87427 6.8311C9.98973 6.53838 10.1045 6.24633 10.22 5.95361Z" fill="#4CC8EE"/>
<path d="M15.6614 11.2343C14.7921 10.3588 13.9228 9.48406 13.0541 8.60794C12.9203 8.47278 12.7933 8.33152 12.6629 8.19365C12.8796 8.01638 13.0867 7.82486 13.3156 7.66525C13.6328 7.44385 13.9669 7.24689 14.2936 7.03906C14.4749 7.13415 14.6563 7.22923 14.8376 7.32363C14.8593 7.34129 14.8804 7.35895 14.9021 7.37729C14.9259 7.3834 14.9503 7.38883 14.9741 7.39495C14.9945 7.41192 15.0155 7.4289 15.0359 7.4452C15.0597 7.452 15.0828 7.45947 15.1065 7.46626C15.1616 7.53078 15.2037 7.61703 15.2729 7.65642C16.2747 8.23032 17.2772 8.80422 18.2871 9.36385C18.5968 9.535 18.9303 9.66336 19.2529 9.81142L19.2508 9.80938C19.4539 9.92348 19.657 10.0383 19.86 10.1524H19.8594C20.1758 10.333 20.493 10.5137 20.8095 10.6943C20.9691 10.784 21.1287 10.8736 21.2883 10.9633L21.2863 10.9619C21.4377 11.0801 21.577 11.2227 21.744 11.3124C22.1033 11.5046 22.4769 11.6703 22.8443 11.8469H22.845C23.0046 11.9365 23.1635 12.0262 23.3231 12.1158L23.3217 12.1145C23.48 12.2055 23.6389 12.2965 23.7972 12.3868L23.7965 12.3861C23.8135 12.4262 23.8189 12.4867 23.8488 12.503C24.4852 12.852 25.1242 13.1957 25.7627 13.5407C25.7647 13.5618 25.762 13.5822 25.7559 13.6025C25.5983 13.7615 25.4407 13.9204 25.2832 14.0793C24.9449 14.4073 24.6047 14.734 24.2685 15.0641C23.4759 15.8438 22.6847 16.6248 21.8935 17.4059C21.2435 16.7702 20.5935 16.1345 19.9436 15.4988C19.9123 15.4723 19.8818 15.4458 19.8505 15.4193C19.8458 15.3969 19.8322 15.3867 19.8098 15.3887C19.7167 15.2801 19.6312 15.1646 19.5306 15.0648C19.0593 14.5982 18.5839 14.1357 18.1091 13.6711C17.2928 12.8595 16.4771 12.0472 15.6614 11.2343Z" fill="#66BE6B"/>
<path d="M25.2832 14.0803C25.4408 13.9214 25.5983 13.7624 25.7559 13.6035C26.4113 13.9757 27.0531 14.375 27.7268 14.7106C28.1445 14.9184 28.2865 15.205 28.2804 15.6478C28.2641 16.8425 28.2722 18.0371 28.2783 19.2318C28.279 19.3853 28.3272 19.5381 28.3517 19.6814C28.6267 19.5958 28.8366 19.5306 29.0465 19.4647C29.0003 19.5082 28.9602 19.5632 28.9066 19.5938C27.8803 20.1765 26.8521 20.7565 25.8238 21.3372C25.7844 21.308 25.745 21.2781 25.705 21.2489C25.6112 21.1389 25.5182 21.0295 25.4245 20.9195C25.4245 18.7591 25.4258 16.5993 25.4177 14.4389C25.4177 14.3194 25.3301 14.1998 25.2832 14.0803Z" fill="#FECC0C"/>
<path d="M9.88937 18.0103C9.95593 18.1162 10.051 18.2147 10.0843 18.3301C10.2717 18.9733 10.449 19.6199 10.6208 20.2678C10.8619 21.1765 11.0929 22.088 11.3319 22.9967C11.6477 24.1961 11.9676 25.3948 12.2834 26.5942C12.3086 26.6907 12.314 26.7926 12.3283 26.8924C12.0199 27.2272 11.7156 27.5654 11.4019 27.8955C11.0786 28.2358 10.7472 28.5672 10.4191 28.902C10.3757 28.9312 10.3329 28.9605 10.2894 28.989C10.1515 28.6711 10.0137 28.3533 9.87646 28.0354C9.8785 24.863 9.87986 21.69 9.8819 18.5162C9.8819 18.3478 9.88665 18.1787 9.88937 18.0103Z" fill="#56C8E9"/>
<path d="M29.0464 19.4658C28.8366 19.531 28.6267 19.5962 28.3516 19.6824C28.3272 19.5391 28.2796 19.3856 28.2783 19.2328C28.2722 18.0381 28.264 16.8435 28.2803 15.6488C28.2864 15.206 28.1445 14.9194 27.7268 14.7116C27.0531 14.3761 26.4113 13.9767 25.7559 13.6045C25.762 13.5842 25.764 13.5638 25.7627 13.5427C25.7783 13.5292 25.7898 13.5129 25.7973 13.4932C27.3662 14.3808 28.9364 15.2658 30.5005 16.1609C30.6832 16.2655 30.8489 16.4122 30.9922 16.5678C31.4663 17.0826 31.4894 17.7237 31.016 18.2405C30.8021 18.4742 30.5026 18.629 30.2418 18.8192C30.1969 18.8396 30.1521 18.8599 30.1073 18.8803C30.0883 18.8891 30.0679 18.8946 30.0468 18.8959C30 18.919 29.9531 18.9421 29.9069 18.9652L29.909 18.9645C29.75 19.0555 29.5918 19.1465 29.4329 19.2369L29.4349 19.2355C29.3065 19.3102 29.1775 19.3849 29.0491 19.459L29.0464 19.4658Z" fill="#FDD70F"/>
<path d="M14.2936 7.03923C13.967 7.24706 13.6328 7.44402 13.3156 7.66542C13.0868 7.82503 12.8796 8.01655 12.663 8.19382C11.8724 7.41889 11.0825 6.64396 10.292 5.86835C10.601 5.34947 11.4941 5.42485 12.0089 5.69652C12.7662 6.09587 13.5051 6.52986 14.2509 6.9523C14.2746 6.9652 14.2801 7.00935 14.2936 7.03923Z" fill="#5BBC71"/>
<path d="M10.2899 28.9896C10.3334 28.9604 10.3762 28.9312 10.4196 28.9026C10.4747 28.9556 10.5229 29.0201 10.586 29.0595C11.0506 29.3495 11.5355 29.2531 11.9681 29.033C12.737 28.6418 13.4752 28.1888 14.2257 27.7623C15.3341 27.1307 16.4432 26.4991 17.5516 25.8674C17.6181 25.8654 17.6847 25.8634 17.7519 25.8613C17.7621 25.8736 17.7723 25.8858 17.7825 25.898C16.5023 26.6308 15.2227 27.3643 13.9411 28.0951C13.3244 28.4462 12.7111 28.8035 12.0836 29.1342C11.6231 29.3774 11.1328 29.5071 10.6275 29.2531C10.5018 29.1906 10.4013 29.0792 10.2899 28.9896Z" fill="#C23E4F"/>
<path d="M25.7056 21.25C25.745 21.2792 25.7851 21.3091 25.8245 21.3383C23.9256 22.4209 22.028 23.5055 20.1283 24.5861C19.4526 24.9705 18.772 25.346 18.0942 25.7257C18.0711 25.7046 18.0487 25.6836 18.0256 25.6625C18.499 25.382 18.9697 25.0982 19.4458 24.8224C20.3294 24.311 21.2157 23.8043 22.1006 23.2963C22.5645 23.0423 23.0318 22.7937 23.4909 22.5323C24.2312 22.1091 24.9674 21.6779 25.7056 21.25Z" fill="#CD4548"/>
<path d="M19.2528 9.81294C18.9302 9.66488 18.5967 9.53651 18.287 9.36536C17.2771 8.80573 16.2754 8.23183 15.2729 7.65794C15.2036 7.61855 15.1615 7.53229 15.1065 7.46777C15.7245 7.80396 16.348 8.132 16.96 8.47905C17.7288 8.91508 18.4888 9.3674 19.2528 9.81294Z" fill="#5BBC71"/>
<path d="M25.7967 13.4917C25.7893 13.5114 25.7777 13.5277 25.7621 13.5413C25.1237 13.1963 24.4846 12.8526 23.8482 12.5035C23.8183 12.4872 23.8129 12.4268 23.7959 12.3867C24.4628 12.7548 25.1298 13.1236 25.7967 13.4917Z" fill="#5BBC71"/>
<path d="M22.8444 11.8474C22.477 11.6708 22.1027 11.5057 21.7441 11.3129C21.5771 11.2232 21.4378 11.0806 21.2864 10.9624C21.8059 11.2572 22.3248 11.5526 22.8444 11.8474Z" fill="#5BBC71"/>
<path d="M19.8594 10.1535C19.6563 10.0394 19.4533 9.92465 19.2502 9.81055C19.4533 9.92465 19.6563 10.0387 19.8594 10.1535Z" fill="#5BBC71"/>
<path d="M23.7973 12.3876C23.639 12.2966 23.4801 12.2056 23.3218 12.1152C23.4801 12.2056 23.6383 12.2966 23.7973 12.3876Z" fill="#5BBC71"/>
<path d="M23.3232 12.1171C23.1636 12.0274 23.0046 11.9378 22.845 11.8481C23.004 11.9378 23.1636 12.0274 23.3232 12.1171Z" fill="#5BBC71"/>
<path d="M29.4323 19.2357C29.5912 19.1447 29.7494 19.0537 29.9083 18.9634C29.7501 19.0537 29.5912 19.1447 29.4323 19.2357Z" fill="#FECC0C"/>
<path d="M29.0485 19.4583C29.1769 19.3836 29.3059 19.3089 29.4343 19.2349C29.3059 19.3096 29.1769 19.3843 29.0485 19.4583Z" fill="#FECC0C"/>
<path d="M18.0081 25.7753C17.9327 25.8167 17.8573 25.8574 17.7819 25.8989C17.7717 25.8867 17.7615 25.8744 17.7513 25.8622C17.8193 25.8174 17.8872 25.7719 17.9551 25.7271C17.9728 25.7427 17.9904 25.759 18.0081 25.7753Z" fill="#C23E4F"/>
<path d="M29.907 18.9648C29.9538 18.9417 30.0007 18.9186 30.0469 18.8955C30 18.9186 29.9538 18.9417 29.907 18.9648Z" fill="#FECC0C"/>
<path d="M18.025 25.6606C18.0481 25.6817 18.0705 25.7028 18.0936 25.7238C18.0651 25.7408 18.0366 25.7578 18.0081 25.7747C17.9904 25.7584 17.9727 25.7428 17.9551 25.7265C17.9788 25.7048 18.0019 25.6824 18.025 25.6606Z" fill="#C23E4F"/>
<path d="M14.9036 7.37954C14.8814 7.36149 14.8599 7.34345 14.8376 7.32471C14.8599 7.34275 14.8821 7.36149 14.9036 7.37954Z" fill="#5BBC71"/>
<path d="M15.038 7.44687C15.0171 7.42952 14.9956 7.41217 14.9748 7.39551C14.9956 7.41286 15.0164 7.42952 15.038 7.44687Z" fill="#5BBC71"/>
<path d="M18.0249 25.6609C18.0018 25.6826 17.9781 25.7043 17.955 25.7261C17.8871 25.7709 17.8192 25.8164 17.7512 25.8612C17.6847 25.8632 17.6181 25.8653 17.5509 25.8666C17.0014 25.5243 16.4459 25.1916 15.9046 24.837C15.6241 24.653 15.3687 24.4309 15.1018 24.2258C16.0234 23.2987 16.9451 22.3723 17.8653 21.4446C17.9679 21.3414 18.0637 21.2313 18.1628 21.1247C18.2579 21.0446 18.3523 20.9644 18.4474 20.8843C19.5707 21.5404 20.6941 22.1951 21.8167 22.8518C21.9831 22.9496 22.1495 23.0542 22.0993 23.2933C21.2143 23.802 20.328 24.308 19.4444 24.8194C18.969 25.0965 18.4983 25.381 18.0249 25.6609Z" fill="#EE374C"/>
<path d="M18.448 20.8855C18.353 20.9657 18.2586 21.0458 18.1635 21.1259C17.8246 19.8939 17.4836 18.6619 17.1481 17.4286C16.8099 16.1857 16.4757 14.9421 16.145 13.6972C15.9528 12.9726 15.7667 12.2465 15.5915 11.5178C15.5711 11.4336 15.6363 11.329 15.6621 11.2339C16.4778 12.0462 17.2935 12.8591 18.1091 13.6714C18.0786 13.7631 18.0039 13.8663 18.0242 13.9451C18.3727 15.3102 18.7272 16.6733 19.0926 18.0337C19.2433 18.5947 19.4226 19.1475 19.5884 19.7038C19.2074 20.0984 18.8277 20.4916 18.448 20.8855Z" fill="#40BBEC"/>
<path d="M15.1024 24.2271C15.3693 24.4322 15.6247 24.6542 15.9052 24.8383C16.4465 25.1928 17.002 25.5256 17.5515 25.8679C16.4431 26.4995 15.334 27.1312 14.2256 27.7628C14.1387 27.6969 14.0572 27.6215 13.9641 27.5658C13.5906 27.3417 13.2075 27.1318 12.8415 26.8962C12.7559 26.8412 12.7212 26.7074 12.6635 26.6102C12.6859 26.5858 12.7083 26.5613 12.7301 26.5369C13.3875 25.893 14.0456 25.2499 14.7017 24.6047C14.7975 24.5109 14.8823 24.407 14.9727 24.3079C15.0155 24.2807 15.0589 24.2542 15.1024 24.2271Z" fill="#E82F50"/>
<path d="M12.6629 26.6108C12.7206 26.708 12.7553 26.8418 12.8409 26.8968C13.2076 27.1318 13.59 27.3416 13.9635 27.5664C14.0566 27.6221 14.1381 27.6968 14.225 27.7634C13.4738 28.1906 12.7363 28.6429 11.9674 29.0341C11.5348 29.2542 11.0499 29.3499 10.5853 29.0606C10.5215 29.0212 10.474 28.9567 10.4189 28.9037C10.747 28.5682 11.0784 28.2368 11.4017 27.8972C11.7155 27.5671 12.0197 27.2289 12.3281 26.8941C12.4401 26.799 12.5515 26.7046 12.6629 26.6108Z" fill="#E32A53"/>
<path d="M25.2832 14.0801C25.33 14.1996 25.4177 14.3191 25.4183 14.4394C25.4272 16.5998 25.4251 18.7595 25.4251 20.92C25.3334 20.8385 25.2377 20.761 25.1501 20.6748C24.0648 19.599 22.9808 18.5211 21.8969 17.4447C21.8928 17.4324 21.8914 17.4202 21.8928 17.4073C22.684 16.627 23.4752 15.8452 24.2678 15.0655C24.604 14.7348 24.9443 14.4081 25.2832 14.0801Z" fill="#FEC111"/>
<path d="M19.5877 19.7052C19.4213 19.149 19.242 18.5954 19.0919 18.0351C18.7265 16.6748 18.372 15.3117 18.0236 13.9466C18.0032 13.8678 18.0779 13.7645 18.1085 13.6729C18.5826 14.1367 19.0587 14.5992 19.53 15.0665C19.6312 15.1663 19.7168 15.2818 19.8091 15.3905C19.8057 15.5134 19.7738 15.6438 19.8044 15.7579C20.0652 16.7379 20.3382 17.7146 20.6072 18.6926C20.2669 19.0301 19.9273 19.3677 19.5877 19.7052Z" fill="#44B2E5"/>
<path d="M20.6064 18.6925C20.3375 17.7145 20.0651 16.7379 19.8037 15.7578C19.7731 15.6437 19.805 15.5133 19.8084 15.3904C19.8315 15.3884 19.8451 15.3985 19.8498 15.421C19.8811 15.4474 19.9116 15.4739 19.9429 15.5004C20.5928 16.1361 21.2428 16.7718 21.8928 17.4075C21.8907 17.4204 21.8921 17.4326 21.8968 17.4449C21.4669 17.8605 21.0363 18.2762 20.6064 18.6925Z" fill="#45A9DF"/>
<path d="M20.6065 18.6926C21.0364 18.2763 21.467 17.8607 21.8969 17.4443C22.9809 18.5215 24.0648 19.5987 25.1501 20.6745C25.2371 20.7607 25.3328 20.8381 25.4252 20.9196C25.5182 21.0297 25.612 21.139 25.7057 21.249C24.9674 21.6769 24.2319 22.1082 23.4903 22.5306C23.0311 22.7928 22.5639 23.0407 22.1 23.2947C22.1496 23.0556 21.9839 22.951 21.8175 22.8532C20.6955 22.1958 19.5715 21.5411 18.4481 20.8857C18.8278 20.4918 19.2081 20.0978 19.5878 19.7046C19.9273 19.3677 20.2669 19.0302 20.6065 18.6926Z" fill="#EF3E4A"/>
<rect x="0.673294" y="1.07253" width="118.087" height="33.255" rx="16.6275" stroke="#D9D9D9" stroke-width="0.788605"/>
</svg>
